<svg xmlns="http://www.w3.org/2000/svg" viewBox="0 0 760 330" role="img" aria-labelledby="title desc">
<title id="title">Shift Left Coaching and Consulting logo</title>
<desc id="desc">A green and blue infinity loop formed by two smiling human figures, representing continuous growth, connection, coaching, and consulting.</desc>
<defs>
  <linearGradient id="greenGrad" x1="0" x2="1"><stop offset="0" stop-color="#2f8f2d"/><stop offset="1" stop-color="#67cf2b"/></linearGradient>
  <linearGradient id="blueGrad" x1="0" x2="1"><stop offset="0" stop-color="#1188ce"/><stop offset="1" stop-color="#1966c2"/></linearGradient>
</defs>
<path d="M112 170C198 48 300 82 384 166C468 250 570 286 650 170" fill="none" stroke="url(#greenGrad)" stroke-width="48" stroke-linecap="round"/>
<path d="M648 170C562 48 460 82 376 166C292 250 190 286 110 170" fill="none" stroke="url(#blueGrad)" stroke-width="48" stroke-linecap="round"/>
<circle cx="92" cy="116" r="43" fill="#58c72e"/>
<circle cx="668" cy="222" r="43" fill="#168dcc"/>
<path d="M76 112q16 19 32 0M650 225q18 15 34-2" fill="none" stroke="white" stroke-width="5.5" stroke-linecap="round"/>
<circle cx="81" cy="102" r="3.8" fill="white"/><circle cx="102" cy="102" r="3.8" fill="white"/><circle cx="656" cy="210" r="3.8" fill="white"/><circle cx="678" cy="210" r="3.8" fill="white"/>
<rect x="235" y="124" width="290" height="92" rx="46" fill="white" opacity=".96"/>
<text x="380" y="166" text-anchor="middle" font-family="Georgia,serif" font-size="38" font-style="italic" fill="#0c2f4f">Shift Left</text>
<text x="380" y="194" text-anchor="middle" font-family="Arial,sans-serif" font-size="16" font-weight="700" letter-spacing="2.2" fill="#2f8f2d">COACHING &amp; CONSULTING</text>
</svg>